<?xml version="1.0" encoding="utf-8"?>
<!-- Generator: Adobe Illustrator 25.4.1, SVG Export Plug-In . SVG Version: 6.00 Build 0)  -->
<svg version="1.1" id="Layer_1" xmlns="http://www.w3.org/2000/svg" xmlns:xlink="http://www.w3.org/1999/xlink" x="0px" y="0px"
	 viewBox="0 0 370 315" style="enable-background:new 0 0 370 315;" xml:space="preserve">
<style type="text/css">
	.st0{fill:#FFFFFF;}
</style>
<path class="st0" d="M353.34,34.01h-336c-6,0-11.55-3.2-14.55-8.4c-3-5.2-3-11.6,0-16.8c3-5.2,8.55-8.4,14.55-8.4h336
	c6,0,11.55,3.2,14.55,8.4c3,5.2,3,11.6,0,16.8C364.89,30.81,359.35,34.01,353.34,34.01z"/>
<path class="st0" d="M353.34,174.01h-336c-6,0-11.55-3.2-14.55-8.4c-3-5.2-3-11.6,0-16.8c3-5.2,8.55-8.4,14.55-8.4h336
	c6,0,11.55,3.2,14.55,8.4c3,5.2,3,11.6,0,16.8C364.89,170.81,359.35,174.01,353.34,174.01z"/>
<path class="st0" d="M353.34,314.01h-336c-6,0-11.55-3.2-14.55-8.4c-3-5.2-3-11.6,0-16.8c3-5.2,8.55-8.4,14.55-8.4h336
	c6,0,11.55,3.2,14.55,8.4c3,5.2,3,11.6,0,16.8C364.89,310.81,359.35,314.01,353.34,314.01z"/>
</svg>
